<svg width="106" height="61" viewBox="0 0 106 61" fill="none" xmlns="http://www.w3.org/2000/svg">
<path d="M90.8482 1.4585V33.3128C82.9045 27.0743 70.2468 23.7896 60.5696 23.7774H54.7459H45.4304C30.2786 23.7774 15.1518 16.2642 15.1518 1.4585H7.56965H0V60.9877H15.1393V29.8443C23.0831 36.0828 35.7532 39.3797 45.4179 39.3797V61H60.5572V39.3675C75.7089 39.3675 90.8358 46.182 90.8358 60.9877H98.4054H106V1.4585H90.8482Z" fill="#E5E5E5"/>
<path d="M53 17.8085C58.0007 17.8085 62.0661 13.8252 62.0661 8.89813C62.0661 3.97107 58.0007 0 53 0C47.9993 0 43.9338 3.98332 43.9338 8.91039C43.9338 13.8375 47.9993 17.8085 53 17.8085Z" fill="#E5E5E5"/>
</svg>
